<svg width="66" height="44" viewBox="0 0 66 44" fill="none" xmlns="http://www.w3.org/2000/svg">
<circle cx="22" cy="22" r="22" fill="#51F5EB" fill-opacity="0.2"/>
<circle cx="44" cy="22" r="22" fill="#F5518C" fill-opacity="0.2"/>
<path d="M32.9302 7.08281C33.3648 7.08281 33.717 6.73055 33.717 6.29602V2.7868C33.717 2.35227 33.3648 2 32.9302 2C32.4957 2 32.1434 2.35227 32.1434 2.7868V6.29602C32.1435 6.73055 32.4958 7.08281 32.9302 7.08281Z" fill="black"/>
<path d="M52.1625 29.0301L50.7726 27.6441C50.2781 27.1502 49.6191 26.8782 48.9169 26.8782C48.468 26.8782 48.0369 26.9899 47.655 27.1992L45.0358 24.5831L45.1633 24.4557C46.2259 23.391 46.2255 21.6609 45.1633 20.5999C44.7837 20.2195 44.31 19.9659 43.7937 19.8592C43.8648 19.6138 43.9022 19.3568 43.9022 19.0938C43.9022 18.3629 43.6183 17.6776 43.1044 17.1658C42.7247 16.7855 42.2511 16.5319 41.7348 16.4252C41.8058 16.1798 41.8433 15.9228 41.8433 15.6597C41.8433 14.9288 41.5594 14.2435 41.0446 13.7309C40.6558 13.3427 40.178 13.0969 39.6762 12.9923C39.9446 12.0667 39.7152 11.0254 38.9871 10.296C38.381 9.69251 37.5586 9.43314 36.766 9.5172L31.5758 8.53478C30.7842 8.38462 29.7957 8.28532 29.1717 8.85446C29.1323 8.8904 29.0922 8.93173 29.0526 8.97775C28.0851 8.62509 26.9567 8.83509 26.1819 9.60899C25.668 10.1224 25.3848 10.8074 25.3848 11.5378C25.3848 11.8009 25.4221 12.0579 25.4931 12.3034C24.9773 12.41 24.5043 12.6633 24.1259 13.0424C23.6109 13.5552 23.3269 14.2395 23.3264 14.9691C23.3262 15.2328 23.3636 15.4906 23.435 15.7367C22.919 15.8431 22.4456 16.0959 22.0661 16.475C21.5511 16.9895 21.2675 17.6749 21.2675 18.4049C21.2675 18.9642 21.4344 19.4969 21.7438 19.9469C21.3532 20.0793 20.9954 20.2997 20.6958 20.599C19.6325 21.6609 19.6321 23.3911 20.6965 24.4574L20.8236 24.5839L18.204 27.1987C17.2305 26.7403 16.0311 26.912 15.2277 27.7144L13.8369 29.1013C13.3422 29.5953 13.0699 30.2544 13.0698 30.957C13.0698 31.6596 13.3422 32.3188 13.8369 32.8129L15.5726 34.5465C15.8801 34.8536 16.3783 34.8533 16.6853 34.5459C16.9924 34.2385 16.9921 33.7402 16.6847 33.4332L14.949 31.6996C14.7519 31.5028 14.6434 31.2391 14.6434 30.957C14.6434 30.6751 14.7519 30.4114 14.9485 30.2151L16.3394 28.8281C16.6869 28.481 17.2187 28.4293 17.6226 28.6708C17.6511 28.7135 17.684 28.7542 17.7216 28.7919C17.789 28.8595 17.866 28.9113 17.9477 28.9492L25.9237 36.9135C25.9616 36.996 26.0137 37.0738 26.0815 37.1417C26.1476 37.2079 26.223 37.2591 26.303 37.2967C26.4717 37.4874 26.5649 37.731 26.5649 37.9909C26.5649 38.2729 26.4564 38.5366 26.2594 38.7334L24.8699 40.1212C24.4594 40.5299 23.7915 40.5299 23.3822 40.1224L21.6465 38.3866C21.3393 38.0793 20.8412 38.0793 20.5339 38.3866C20.2266 38.6938 20.2266 39.192 20.5339 39.4992L22.2708 41.2363C22.7821 41.7455 23.4535 41.9999 24.1252 41.9999C24.7971 41.9999 25.4693 41.7451 25.9812 41.2355L27.3715 39.8468C27.8662 39.3527 28.1386 38.6936 28.1386 37.9909C28.1386 37.4894 27.9991 37.0105 27.7398 36.5975L30.688 33.653C30.6911 33.6498 30.6942 33.6466 30.6974 33.6434C31.035 33.2944 31.9751 33.3597 32.8842 33.4228C33.5301 33.4677 34.2503 33.5177 34.9539 33.4366L38.1823 36.6612C37.9732 37.0425 37.8615 37.473 37.8615 37.9213C37.8615 38.6232 38.134 39.2819 38.6287 39.776L40.019 41.1647C40.5134 41.6585 41.1724 41.9306 41.8746 41.9306C42.5767 41.9306 43.2357 41.6586 43.7301 41.1647L52.163 32.742C52.6577 32.248 52.9301 31.5889 52.9301 30.8863C52.9301 30.1837 52.6576 29.5246 52.1625 29.0301V29.0301ZM31.2828 10.0809L34.6958 10.7269L32.653 12.769C32.3369 12.6171 31.9038 12.3338 31.4287 11.8793C30.7783 11.2571 30.313 10.5388 30.2707 10.0907C30.2706 10.0905 30.2706 10.0902 30.2706 10.09C30.2706 10.0899 30.2705 10.0899 30.2705 10.0898C30.2675 10.0576 30.2667 10.0319 30.2671 10.0123C30.37 9.98728 30.6433 9.95954 31.2828 10.0809ZM27.2939 10.7224C27.6925 10.3242 28.3117 10.2782 28.7621 10.5832C29.0173 11.6534 29.9302 12.6233 30.3409 13.0163C30.6453 13.3075 31.6219 14.1807 32.6077 14.4207C32.7411 14.6119 32.8137 14.8398 32.8137 15.0802C32.8137 15.39 32.6945 15.6796 32.4774 15.8965C32.2609 16.1134 31.9708 16.2327 31.6605 16.2327C31.3501 16.2327 31.0601 16.1134 30.8426 15.8955L30.8425 15.8954L30.8421 15.895L27.2938 12.3531C27.0775 12.1371 26.9583 11.8475 26.9583 11.5378C26.9584 11.2281 27.0776 10.9384 27.2939 10.7224V10.7224ZM25.238 14.1557C25.4544 13.9389 25.7442 13.8195 26.054 13.8195C26.3643 13.8195 26.655 13.9392 26.8729 14.1568L29.7301 17.0083C30.18 17.4589 30.18 18.1922 29.7316 18.6413C29.514 18.8581 29.2229 18.9774 28.912 18.9774C28.6012 18.9774 28.3101 18.8581 28.0933 18.6422L28.0933 18.6421L25.9257 16.475C25.9223 16.4717 25.9187 16.4685 25.9152 16.4651L25.2371 15.7873C25.0195 15.5699 24.8997 15.2798 24.9 14.9702C24.9003 14.6617 25.0197 14.3731 25.238 14.1557V14.1557ZM23.1781 17.5884C23.3947 17.372 23.6851 17.2529 23.9959 17.2529C24.3041 17.2529 24.592 17.3703 24.8077 17.5829L26.9819 19.7561C27.1987 19.972 27.3182 20.2613 27.3182 20.5707C27.3182 20.88 27.1987 21.1693 26.9811 21.3861C26.7645 21.6024 26.4744 21.7215 26.1642 21.7215C25.8535 21.7215 25.5625 21.602 25.3456 21.3861L24.5574 20.5988C24.5572 20.5986 24.557 20.5984 24.5569 20.5983L23.1782 19.2213C22.9608 19.0042 22.8412 18.7142 22.8412 18.4048C22.8412 18.0955 22.9608 17.8054 23.1781 17.5884V17.5884ZM21.8078 21.7123C22.0254 21.4949 22.3162 21.3752 22.6265 21.3752C22.9369 21.3752 23.2276 21.4949 23.4451 21.712L24.2344 22.5004C24.4512 22.7163 24.5706 23.0056 24.5706 23.315C24.5706 23.6244 24.4512 23.9136 24.2327 24.1313C24.0162 24.3481 23.7262 24.4675 23.4158 24.4675C23.1055 24.4675 22.8154 24.3481 22.5973 24.1297L22.4985 24.0313C22.4972 24.0299 22.4962 24.0285 22.4949 24.0273C22.4934 24.0259 22.4919 24.0246 22.4904 24.0232L21.8086 23.3441C21.3587 22.8932 21.3583 22.1613 21.8078 21.7123ZM37.8417 30.6543C37.5346 30.3468 37.0364 30.3466 36.729 30.6536L36.029 31.3527C35.3639 32.0179 34.1587 31.9342 32.9931 31.8533C31.7274 31.7653 30.4186 31.6745 29.5716 32.5441L26.6736 35.4386L19.4265 28.2021L21.9912 25.642C22.4151 25.9019 22.9042 26.0412 23.416 26.0412C24.1472 26.0412 24.8328 25.7577 25.3449 25.2447C25.8605 24.7313 26.1444 24.046 26.1444 23.3151C26.1444 23.3083 26.144 23.3016 26.144 23.2948C26.1508 23.2949 26.1576 23.2952 26.1644 23.2952C26.8945 23.2952 27.5796 23.0127 28.0924 22.5005C28.608 21.987 28.8919 21.3017 28.8919 20.5709C28.8919 20.5641 28.8915 20.5574 28.8915 20.5506C28.8983 20.5506 28.9052 20.551 28.9122 20.551C29.6421 20.551 30.3276 20.2688 30.8438 19.7546C31.3797 19.2178 31.6448 18.5111 31.6398 17.8059C31.6468 17.8059 31.6538 17.8063 31.6608 17.8063C32.392 17.8063 33.0776 17.5229 33.5905 17.0091C34.1044 16.4957 34.3876 15.8107 34.3876 15.0802C34.3876 14.5694 34.2487 14.081 33.9897 13.658L36.2376 11.411C36.4051 11.2442 36.6116 11.1395 36.8281 11.0963C36.8515 11.0938 36.8747 11.0901 36.8976 11.0856C37.2449 11.0377 37.6097 11.1449 37.8753 11.4094C38.3252 11.8601 38.3252 12.5934 37.8769 13.0424L37.1923 13.7242C37.1901 13.7265 37.1876 13.7285 37.1854 13.7308L36.3969 14.518C36.0894 14.825 36.089 15.3232 36.3962 15.6306C36.7033 15.9381 37.2015 15.9384 37.5088 15.6313L38.1962 14.9449C38.1963 14.9448 38.1965 14.9446 38.1966 14.9445L38.3005 14.8409C38.7517 14.3939 39.4826 14.3949 39.9333 14.8449C40.1502 15.0609 40.2697 15.3502 40.2697 15.6595C40.2697 15.9688 40.1502 16.2581 39.9316 16.4758L39.2431 17.1657C39.243 17.1658 39.243 17.1659 39.2429 17.166L38.4544 17.9513C38.1465 18.2579 38.1455 18.7561 38.4522 19.0639C38.7588 19.3718 39.2569 19.3727 39.5648 19.0662L40.3569 18.2774C40.5733 18.0605 40.8634 17.9411 41.1737 17.9411C41.4841 17.9411 41.7743 18.0605 41.9923 18.2789C42.2092 18.4949 42.3286 18.7842 42.3286 19.0936C42.3286 19.4029 42.2092 19.6922 41.9911 19.9094L40.6184 21.2826C40.3112 21.5899 40.3113 22.0881 40.6186 22.3952C40.7723 22.5488 40.9735 22.6256 41.1748 22.6256C41.3762 22.6256 41.5776 22.5487 41.7312 22.395L42.404 21.722C42.4078 21.7184 42.4119 21.7152 42.4158 21.7113C42.6323 21.4945 42.9223 21.3751 43.2326 21.3751C43.543 21.3751 43.8331 21.4945 44.0504 21.7121C44.4998 22.1611 44.4994 22.8931 44.0504 23.343L43.3664 24.0262C43.3662 24.0264 43.3658 24.0267 43.3656 24.0269C43.3654 24.0271 43.3651 24.0274 43.3649 24.0277L42.2793 25.112C41.9719 25.4191 41.9715 25.9173 42.2786 26.2247C42.4323 26.3785 42.6338 26.4555 42.8353 26.4555C43.0365 26.4555 43.2377 26.3788 43.3913 26.2254L43.9223 25.695L46.4674 28.2371L39.2209 35.4748L36.6245 32.8815C36.8055 32.7651 36.9787 32.6282 37.1413 32.4656L37.8409 31.7669C38.1485 31.4599 38.1488 30.9617 37.8417 30.6543V30.6543ZM51.0509 31.6287L42.618 40.0513C42.4208 40.2484 42.1567 40.3569 41.8745 40.3569C41.5923 40.3569 41.3283 40.2484 41.1309 40.0513L39.7405 38.6626C39.5435 38.4659 39.435 38.2026 39.435 37.9213C39.435 37.64 39.5435 37.3767 39.7405 37.1799L48.1734 28.7573C48.3708 28.5602 48.6348 28.4517 48.917 28.4517C49.1992 28.4517 49.4633 28.5602 49.6611 28.7577L51.051 30.1438C51.248 30.3406 51.3565 30.6042 51.3565 30.8862C51.3565 31.1683 51.248 31.432 51.0509 31.6287V31.6287Z" fill="black"/>
<path d="M22.4827 6.41953C22.6363 6.57282 22.8374 6.64938 23.0385 6.64938C23.24 6.64938 23.4417 6.57235 23.5953 6.41836C23.9023 6.11079 23.9018 5.61266 23.5942 5.30571L20.7272 2.44438C20.4197 2.13743 19.9215 2.13782 19.6145 2.44547C19.3076 2.75305 19.3081 3.25118 19.6156 3.55813L22.4827 6.41953Z" fill="black"/>
<path d="M42.8221 6.64938C43.0232 6.64938 43.2245 6.57266 43.3781 6.4193L46.2429 3.5579C46.5503 3.25086 46.5507 2.75266 46.2435 2.44524C45.9365 2.13782 45.4384 2.13751 45.1309 2.44461L42.266 5.30602C41.9586 5.61305 41.9583 6.11125 42.2654 6.41868C42.4191 6.5725 42.6206 6.64938 42.8221 6.64938Z" fill="black"/>
<path d="M17.9077 35.8441C17.6031 36.1539 17.6073 36.6521 17.9173 36.9567L17.9195 36.9589C18.0724 37.1092 18.2709 37.1841 18.4694 37.1841C18.673 37.1841 18.8767 37.1052 19.031 36.9483C19.3356 36.6384 19.3302 36.1392 19.0204 35.8345C18.7106 35.5299 18.2125 35.5342 17.9077 35.8441V35.8441Z" fill="black"/>
<path d="M39.7661 29.5209C39.8858 29.5209 40.0072 29.4936 40.1212 29.4362C40.5091 29.2405 40.665 28.7674 40.4694 28.3794C40.2737 27.9914 39.8005 27.8355 39.4126 28.0312L39.4082 28.0334C39.0202 28.2291 38.8666 28.7011 39.0622 29.0891C39.2003 29.3631 39.4781 29.5209 39.7661 29.5209V29.5209Z" fill="black"/>
</svg>
